<?xml version="1.0" encoding="UTF-8" standalone="no"?>
<svg
   xmlns:dc="http://purl.org/dc/elements/1.1/"
   xmlns:cc="http://creativecommons.org/ns#"
   xmlns:rdf="http://www.w3.org/1999/02/22-rdf-syntax-ns#"
   xmlns:svg="http://www.w3.org/2000/svg"
   xmlns="http://www.w3.org/2000/svg"
   xmlns:sodipodi="http://sodipodi.sourceforge.net/DTD/sodipodi-0.dtd"
   xmlns:inkscape="http://www.inkscape.org/namespaces/inkscape"
   sodipodi:docname="emex.svg"
   inkscape:version="0.92.5 (2060ec1f9f, 2020-04-08)"
   id="svg8"
   version="1.1"
   viewBox="0 0 210 142.87487"
   height="540"
   width="793.70081">
  <title
     id="title907">logotipo emex control de plagas</title>
  <defs
     id="defs2">
    <clipPath
       clipPathUnits="userSpaceOnUse"
       id="clipPath849">
      <path
         d="M 0,1715.657 H 1343.731 V 0 H 0 Z"
         id="path847"
         inkscape:connector-curvature="0" />
    </clipPath>
  </defs>
  <sodipodi:namedview
     inkscape:window-maximized="1"
     inkscape:window-y="27"
     inkscape:window-x="72"
     inkscape:window-height="704"
     inkscape:window-width="1288"
     showgrid="false"
     inkscape:document-rotation="0"
     inkscape:current-layer="g845"
     inkscape:document-units="mm"
     inkscape:cy="455.53245"
     inkscape:cx="308.46142"
     inkscape:zoom="0.49497475"
     inkscape:pageshadow="2"
     inkscape:pageopacity="0.0"
     borderopacity="1.0"
     bordercolor="#666666"
     pagecolor="#ffffff"
     id="base"
     showborder="true"
     inkscape:showpageshadow="false"
     units="px"
     showguides="true"
     inkscape:guide-bbox="true">
    <sodipodi:guide
       position="105.30419,246.42251"
       orientation="1,0"
       id="guide908"
       inkscape:locked="false" />
  </sodipodi:namedview>
  <metadata
     id="metadata5">
    <rdf:RDF>
      <cc:Work
         rdf:about="">
        <dc:format>image/svg+xml</dc:format>
        <dc:type
           rdf:resource="http://purl.org/dc/dcmitype/StillImage" />
        <dc:title>logotipo emex control de plagas</dc:title>
        <dc:date>2020-05-17</dc:date>
        <dc:creator>
          <cc:Agent>
            <dc:title>Daniel Vega Caro</dc:title>
          </cc:Agent>
        </dc:creator>
        <cc:license
           rdf:resource="http://creativecommons.org/licenses/by-nc-nd/4.0/" />
        <dc:rights>
          <cc:Agent>
            <dc:title>Atribución CC NoComercial-NoDerivs</dc:title>
          </cc:Agent>
        </dc:rights>
        <dc:publisher>
          <cc:Agent>
            <dc:title>Cianware</dc:title>
          </cc:Agent>
        </dc:publisher>
        <dc:source>https://cianware.com</dc:source>
        <dc:language>Español-Inglés</dc:language>
        <dc:subject>
          <rdf:Bag>
            <rdf:li>logotipo-emex-control-de-plagas</rdf:li>
          </rdf:Bag>
        </dc:subject>
      </cc:Work>
      <cc:License
         rdf:about="http://creativecommons.org/licenses/by-nc-nd/4.0/">
        <cc:permits
           rdf:resource="http://creativecommons.org/ns#Reproduction" />
        <cc:permits
           rdf:resource="http://creativecommons.org/ns#Distribution" />
        <cc:requires
           rdf:resource="http://creativecommons.org/ns#Notice" />
        <cc:requires
           rdf:resource="http://creativecommons.org/ns#Attribution" />
        <cc:prohibits
           rdf:resource="http://creativecommons.org/ns#CommercialUse" />
      </cc:License>
    </rdf:RDF>
  </metadata>
  <g
     id="layer1"
     inkscape:groupmode="layer"
     inkscape:label="Capa 1"
     transform="translate(0,-136.12513)">
    <g
       id="g845"
       clip-path="url(#clipPath849)"
       transform="matrix(0.17916812,0,0,-0.17916812,-18.787282,292.11252)">
      <g
         id="g851"
         transform="matrix(0.45595642,0,0,0.45595642,692.90426,774.43078)">
        <path
           d="m 0,0 c -97.991,0 -207.631,-39.388 -259.596,-99.693 -16.133,-12.451 -31.345,-26.032 -45.524,-40.626 0,0 -25.265,25.78 -66.708,24.45 8.097,56.425 27.91,75.514 43.377,96.054 13.576,18.031 3.626,38.904 -17.883,39.871 -15.857,15.315 -36.237,36.969 -71.527,71.768 -18.403,18.148 -35.702,-1.269 -35.702,-1.269 0,0 -16.92,13.938 -21.296,16.312 -12.867,6.977 -19.754,-10.602 -8.336,-15.043 5.853,-2.275 25.644,-9.061 25.644,-9.061 0,0 -6.22,-17.882 12.143,-27.668 20.722,-11.043 66.694,-30.447 85.179,-39.57 -71.162,-128.132 12.556,-207.059 12.556,-207.059 -41.205,-58.281 -68.155,-127.359 -75.769,-202.153 0,0 -66.187,-30.095 -91.378,-41.876 -10.574,-4.944 -14.499,-18.304 -11.296,-28.634 -7.281,-4.713 -21.477,-13.467 -30.025,-19.574 -3.806,-2.718 -5.525,-7.711 -4.214,-12.641 -3.398,-1.676 -9.682,-4.58 -14.046,-7.113 -14.045,-8.155 1.496,-25.01 10.739,-13.23 3.278,4.178 7.612,10.301 9.605,13.049 4.913,-2.146 9.741,-0.952 13.592,2.9 6.434,6.433 18.849,19.663 23.773,24.768 9.303,-5.558 20.7,-4.98 29.963,3.504 17.217,15.767 61.602,56.545 61.602,56.545 -0.348,-7.085 -0.527,-14.215 -0.527,-21.386 0,-91.843 29.043,-176.903 78.446,-246.498 0,0 -31.747,-59.423 -40.568,-104.731 -2.337,-12.002 7.612,-21.385 7.612,-21.385 l -59.322,-25.854 c 0,0 -19.089,-7.25 -13.171,-29.485 -6.163,-3.743 -28.876,-18.848 -28.876,-18.848 0,0 -6.012,-4.378 -3.865,-12.443 -2.328,-0.996 -10.115,-4.913 -14.108,-7.158 -14.498,-8.155 1.861,-24.88 10.783,-13.23 3.262,4.259 6.525,9.333 9.487,13.139 8.003,-3.262 12.805,2.052 12.805,2.052 0,0 18.485,19.212 23.319,24.165 19.936,-11.718 32.382,6.286 32.382,6.286 l 47.664,55.999 c 0,0 19.465,2.119 20.842,21.083 3.624,50.02 13.938,85.709 13.938,85.709 78.193,-94.738 195.855,-155.123 328.286,-155.123 132.429,0 250.089,60.385 328.284,155.123 0,0 10.313,-35.689 13.936,-85.709 1.376,-18.964 20.844,-21.083 20.844,-21.083 l 47.663,-55.999 c 0,0 12.45,-18.004 32.385,-6.286 4.831,-4.953 23.317,-24.165 23.317,-24.165 0,0 4.802,-5.314 12.804,-2.052 2.964,-3.806 6.226,-8.88 9.487,-13.139 8.928,-11.65 25.282,5.075 10.783,13.23 -3.993,2.245 -11.779,6.162 -14.106,7.158 2.145,8.065 -3.864,12.443 -3.864,12.443 0,0 -22.715,15.105 -28.879,18.848 5.919,22.235 -13.169,29.485 -13.169,29.485 l -59.323,25.854 c 0,0 9.947,9.383 7.612,21.385 -8.818,45.308 -40.569,104.731 -40.569,104.731 49.404,69.595 78.446,154.655 78.446,246.498 0,7.171 -0.175,14.301 -0.528,21.386 0,0 44.387,-40.778 61.604,-56.545 9.265,-8.484 20.659,-9.062 29.965,-3.504 4.922,-5.105 17.337,-18.335 23.77,-24.768 3.85,-3.852 8.679,-5.046 13.592,-2.9 1.994,-2.748 6.327,-8.871 9.606,-13.049 9.241,-11.78 24.783,5.075 10.738,13.23 -4.364,2.533 -10.647,5.437 -14.046,7.113 1.312,4.93 -0.408,9.923 -4.212,12.641 -8.55,6.107 -22.747,14.861 -30.024,19.574 3.201,10.33 -0.724,23.69 -11.298,28.634 -25.192,11.781 -91.379,41.876 -91.379,41.876 -7.614,74.794 -34.563,143.872 -75.771,202.153 0,0 83.721,78.927 12.559,207.059 18.484,9.123 64.455,28.527 85.178,39.57 18.367,9.786 12.144,27.668 12.144,27.668 0,0 19.793,6.786 25.644,9.061 11.417,4.441 4.531,22.02 -8.337,15.043 -4.377,-2.374 -21.296,-16.312 -21.296,-16.312 0,0 -17.298,19.417 -35.703,1.269 -35.289,-34.799 -55.667,-56.453 -71.525,-71.768 -21.51,-0.967 -31.461,-21.84 -17.886,-39.871 15.468,-20.54 35.283,-39.629 43.38,-96.054 -41.443,1.33 -66.706,-24.45 -66.706,-24.45 -14.183,14.594 -29.396,28.175 -45.525,40.626 C 207.628,-39.388 97.99,0 0,0"
           style="fill:#231f20;fill-opacity:1;fill-rule:nonzero;stroke:none"
           id="path853"
           inkscape:connector-curvature="0" />
      </g>
      <g
         id="g855"
         transform="matrix(0.45595642,0,0,0.45595642,692.59791,701.98786)">
        <path
           d="m 0,0 c 94.439,0 214.632,9.062 248.696,30.849 90.24,-72.836 147.958,-184.349 147.958,-309.343 0,-219.434 -177.22,-397.324 -396.654,-397.324 -219.433,0 -396.656,177.89 -396.656,397.324 0,124.994 57.72,236.507 147.958,309.343 C -214.636,9.062 -94.438,0 0,0"
           style="fill:#ffffff;fill-opacity:1;fill-rule:nonzero;stroke:none"
           id="path857"
           inkscape:connector-curvature="0" />
      </g>
      <g
         id="g859"
         transform="matrix(0.45595642,0,0,0.45595642,686.28432,401.62148)">
        <path
           d="m 0,0 -0.031,461.324 c 0,0 -87.776,6.224 -87.776,66.332 0,60.23 87.765,66.392 87.765,66.392 l -0.003,40.234 C -95.374,632.953 -194.508,647.27 -233.139,660.895 -312.377,591.788 -362.448,490.086 -362.448,376.69 -362.448,173.359 -201.463,7.628 0,0"
           style="fill:#bf1b2c;fill-opacity:1;fill-rule:nonzero;stroke:none"
           id="path861"
           inkscape:connector-curvature="0" />
      </g>
      <g
         id="g863"
         transform="matrix(0.45595642,0,0,0.45595642,698.9104,401.62148)">
        <path
           d="m 0,0 0.034,461.324 c 0,0 87.774,6.224 87.774,66.332 0,60.23 -87.766,66.392 -87.766,66.392 l 0.003,40.234 C 95.374,632.953 194.508,647.27 233.139,660.895 312.379,591.788 362.45,490.086 362.45,376.69 362.45,173.359 201.464,7.628 0,0"
           style="fill:#bf1b2c;fill-opacity:1;fill-rule:nonzero;stroke:none"
           id="path865"
           inkscape:connector-curvature="0" />
      </g>
      <g
         id="g867"
         transform="matrix(0.45595642,0,0,0.45595642,661.69915,791.61313)">
        <path
           d="m 0,0 c -7.227,30.278 -35.496,78.06 -142.4,73.804 -11.359,-0.452 -16.946,-12.596 -15.827,-19.906 0.926,-6.043 7.869,-17.867 21.748,-14.619 88.764,20.775 120.488,-14.415 131.997,-40.052 z"
           style="fill:#231f20;fill-opacity:1;fill-rule:nonzero;stroke:none"
           id="path869"
           inkscape:connector-curvature="0" />
      </g>
      <g
         id="g871"
         transform="matrix(0.45595642,0,0,0.45595642,636.38893,469.70946)">
        <path
           d="m 0,0 c -33.209,-24.848 -88.589,-6.952 -123.698,39.97 -35.11,46.923 -36.654,105.103 -3.446,129.95 33.208,24.852 88.589,6.952 123.698,-39.966 C 31.665,83.031 33.207,24.852 0,0"
           style="fill:#ffffff;fill-opacity:1;fill-rule:nonzero;stroke:none"
           id="path873"
           inkscape:connector-curvature="0" />
      </g>
      <g
         id="g875"
         transform="matrix(0.45595642,0,0,0.45595642,734.27414,642.20982)">
        <path
           d="m 0,0 c 0,-30.572 -40.625,-55.353 -90.736,-55.353 -50.11,0 -90.732,24.781 -90.732,55.353 0,30.572 40.622,55.352 90.732,55.352 C -40.625,55.352 0,30.572 0,0"
           style="fill:#231f20;fill-opacity:1;fill-rule:nonzero;stroke:none"
           id="path877"
           inkscape:connector-curvature="0" />
      </g>
      <g
         id="g879"
         transform="matrix(0.45595642,0,0,0.45595642,633.18396,473.99239)">
        <path
           d="m 0,0 c -27.941,-20.908 -75.905,-4.022 -107.134,37.712 -31.229,41.734 -33.896,92.515 -5.952,113.422 27.941,20.909 75.908,4.022 107.134,-37.709 C 25.277,71.689 27.944,20.909 0,0"
           style="fill:#231f20;fill-opacity:1;fill-rule:nonzero;stroke:none"
           id="path881"
           inkscape:connector-curvature="0" />
      </g>
      <g
         id="g883"
         transform="matrix(0.45595642,0,0,0.45595642,576.0409,656.3635)">
        <path
           d="m 0,0 c 26.174,-8.508 36.743,-48.125 23.618,-88.486 -13.126,-40.355 -44.981,-66.178 -71.151,-57.663 -26.171,8.51 -36.739,48.125 -23.617,88.484 C -58.025,-17.305 -26.17,8.514 0,0"
           style="fill:#ffffff;fill-opacity:1;fill-rule:nonzero;stroke:none"
           id="path885"
           inkscape:connector-curvature="0" />
      </g>
      <g
         id="g887"
         transform="matrix(0.45595642,0,0,0.45595642,574.42071,651.38154)">
        <path
           d="m 0,0 c 19.794,-6.434 26.786,-39.478 15.623,-73.804 -11.163,-34.321 -36.255,-56.931 -56.049,-50.492 -19.791,6.435 -26.782,39.478 -15.623,73.802 C -44.886,-16.168 -19.794,6.438 0,0"
           style="fill:#231f20;fill-opacity:1;fill-rule:nonzero;stroke:none"
           id="path889"
           inkscape:connector-curvature="0" />
      </g>
      <g
         id="g891"
         transform="matrix(0.45595642,0,0,0.45595642,668.97868,759.97247)">
        <path
           d="m 0,0 c 3.809,-9.454 -28.482,-31.362 -72.117,-48.936 -43.637,-17.573 -82.097,-24.158 -85.903,-14.706 -3.806,9.454 28.482,31.365 72.119,48.937 C -42.267,2.87 -3.806,9.452 0,0"
           style="fill:#ffffff;fill-opacity:1;fill-rule:nonzero;stroke:none"
           id="path893"
           inkscape:connector-curvature="0" />
      </g>
      <g
         id="g895"
         transform="matrix(0.45595642,0,0,0.45595642,748.80597,469.70946)">
        <path
           d="m 0,0 c 33.207,-24.848 88.588,-6.952 123.697,39.97 35.111,46.923 36.655,105.103 3.449,129.95 C 93.935,194.772 38.554,176.872 3.45,129.954 -31.664,83.031 -33.208,24.852 0,0"
           style="fill:#ffffff;fill-opacity:1;fill-rule:nonzero;stroke:none"
           id="path897"
           inkscape:connector-curvature="0" />
      </g>
      <g
         id="g899"
         transform="matrix(0.45595642,0,0,0.45595642,752.01058,473.99239)">
        <path
           d="m 0,0 c 27.944,-20.908 75.908,-4.022 107.135,37.712 31.228,41.734 33.895,92.515 5.954,113.422 C 85.146,172.043 37.181,155.156 5.952,113.425 -25.276,71.689 -27.944,20.909 0,0"
           style="fill:#231f20;fill-opacity:1;fill-rule:nonzero;stroke:none"
           id="path901"
           inkscape:connector-curvature="0" />
      </g>
      <g
         id="g903"
         transform="matrix(0.45595642,0,0,0.45595642,809.15341,656.3635)">
        <path
           d="m 0,0 c -26.174,-8.508 -36.742,-48.125 -23.614,-88.486 13.123,-40.355 44.977,-66.178 71.147,-57.663 26.172,8.51 36.743,48.125 23.621,88.484 C 58.025,-17.305 26.174,8.514 0,0"
           style="fill:#ffffff;fill-opacity:1;fill-rule:nonzero;stroke:none"
           id="path905"
           inkscape:connector-curvature="0" />
      </g>
      <g
         id="g907"
         transform="matrix(0.45595642,0,0,0.45595642,810.77378,651.38154)">
        <path
           d="m 0,0 c -19.794,-6.434 -26.784,-39.478 -15.619,-73.804 11.163,-34.321 36.251,-56.931 56.046,-50.492 19.794,6.435 26.782,39.478 15.624,73.802 C 44.89,-16.168 19.794,6.438 0,0"
           style="fill:#231f20;fill-opacity:1;fill-rule:nonzero;stroke:none"
           id="path909"
           inkscape:connector-curvature="0" />
      </g>
      <g
         id="g911"
         transform="matrix(0.45595642,0,0,0.45595642,716.21581,759.97247)">
        <path
           d="m 0,0 c -3.809,-9.454 28.482,-31.362 72.117,-48.936 43.636,-17.573 82.099,-24.158 85.904,-14.706 3.805,9.454 -28.484,31.365 -72.12,48.937 C 42.268,2.87 3.806,9.452 0,0"
           style="fill:#ffffff;fill-opacity:1;fill-rule:nonzero;stroke:none"
           id="path913"
           inkscape:connector-curvature="0" />
      </g>
      <g
         id="g915"
         transform="matrix(0.45595642,0,0,0.45595642,723.49561,791.61313)">
        <path
           d="M 0,0 C 7.229,30.278 35.497,78.06 142.4,73.804 153.759,73.352 159.345,61.208 158.227,53.898 157.302,47.855 150.358,36.031 136.482,39.279 47.718,60.054 15.99,24.864 4.483,-0.773 Z"
           style="fill:#231f20;fill-opacity:1;fill-rule:nonzero;stroke:none"
           id="path917"
           inkscape:connector-curvature="0" />
      </g>
      <g
         id="g919"
         transform="matrix(0.45595642,0,0,0.45595642,546.69463,333.7149)">
        <path
           d="M 0,0 H -202.256 V -359.565 H 0 v 23.923 l -169.634,-0.244 V -26.341 L 0,-26.097 Z"
           style="fill:#231f20;fill-opacity:1;fill-rule:nonzero;stroke:none"
           id="path921"
           inkscape:connector-curvature="0" />
      </g>
      <g
         id="g923"
         transform="matrix(0.45595642,0,0,0.45595642,546.69463,313.22157)">
        <path
           d="m 0,0 h -150.786 v -114.539 h 128.313 v 23.679 h -90.132 v 67.419 H 0 Z"
           style="fill:#231f20;fill-opacity:1;fill-rule:nonzero;stroke:none"
           id="path925"
           inkscape:connector-curvature="0" />
      </g>
      <g
         id="g927"
         transform="matrix(0.45595642,0,0,0.45595642,546.69463,189.76617)">
        <path
           d="m 0,0 h -150.786 v 136.287 h 128.313 v -23.679 h -90.132 V 23.442 H 0 Z"
           style="fill:#231f20;fill-opacity:1;fill-rule:nonzero;stroke:none"
           id="path929"
           inkscape:connector-curvature="0" />
      </g>
      <g
         id="g931"
         transform="matrix(0.45595642,0,0,0.45595642,812.44596,333.7149)">
        <path
           d="M 0,0 H -202.256 V -359.565 H 0 v 23.923 l -169.634,-0.244 V -26.341 L 0,-26.097 Z"
           style="fill:#231f20;fill-opacity:1;fill-rule:nonzero;stroke:none"
           id="path933"
           inkscape:connector-curvature="0" />
      </g>
      <g
         id="g935"
         transform="matrix(0.45595642,0,0,0.45595642,812.44596,313.22157)">
        <path
           d="m 0,0 h -150.784 v -114.539 h 128.311 v 23.679 h -90.132 v 67.419 H 0 Z"
           style="fill:#231f20;fill-opacity:1;fill-rule:nonzero;stroke:none"
           id="path937"
           inkscape:connector-curvature="0" />
      </g>
      <g
         id="g939"
         transform="matrix(0.45595642,0,0,0.45595642,812.44596,189.76617)">
        <path
           d="m 0,0 h -150.784 v 136.287 h 128.311 v -23.679 h -90.132 V 23.442 H 0 Z"
           style="fill:#231f20;fill-opacity:1;fill-rule:nonzero;stroke:none"
           id="path941"
           inkscape:connector-curvature="0" />
      </g>
      <g
         id="g943"
         transform="matrix(0.45595642,0,0,0.45595642,628.00649,231.79865)">
        <path
           d="m 0,0 116.714,213.373 v -349.416 h 39.871 V 223.522 H 84.817 L 0,64.038 -84.817,223.522 h -71.768 v -359.565 h 39.871 v 349.416 z"
           style="fill:#231f20;fill-opacity:1;fill-rule:nonzero;stroke:none"
           id="path945"
           inkscape:connector-curvature="0" />
      </g>
      <g
         id="g947"
         transform="matrix(0.45595642,0,0,0.45595642,628.00649,180.67663)">
        <path
           d="M 0,0 67.419,118.163 V -23.923 H 97.141 V 250.1 L 0,71.768 -97.141,250.1 V -23.923 h 29.723 v 142.086 z"
           style="fill:#231f20;fill-opacity:1;fill-rule:nonzero;stroke:none"
           id="path949"
           inkscape:connector-curvature="0" />
      </g>
      <g
         id="g951"
         transform="matrix(0.45595642,0,0,0.45595642,891.22734,252.73479)">
        <path
           d="m 0,0 c 0,-21.62 -17.529,-39.149 -39.15,-39.149 -21.621,0 -39.15,17.529 -39.15,39.149 0,21.621 17.529,39.149 39.15,39.149 C -17.529,39.149 0,21.621 0,0"
           style="fill:#231f20;fill-opacity:1;fill-rule:nonzero;stroke:none"
           id="path953"
           inkscape:connector-curvature="0" />
      </g>
      <g
         id="g955"
         transform="matrix(0.45595642,0,0,0.45595642,873.37651,281.16226)">
        <path
           d="M 0,0 C 8.608,0 16.809,-1.745 24.269,-4.899 L 57.998,52.19 v 63.068 H 22.476 V 47.115 L 11.12,25.4 c 0,0 -7.353,0.698 -11.12,0.698 -3.767,0 -11.12,-0.698 -11.12,-0.698 l -11.356,21.715 v 68.143 H -57.999 V 52.19 l 33.73,-57.089 C -16.811,-1.745 -8.608,0 0,0"
           style="fill:#231f20;fill-opacity:1;fill-rule:nonzero;stroke:none"
           id="path957"
           inkscape:connector-curvature="0" />
      </g>
      <g
         id="g959"
         transform="matrix(0.45595642,0,0,0.45595642,844.94868,252.73479)">
        <path
           d="m 0,0 c 0,-18.893 11.669,-38.993 24.951,-50.425 0.082,-0.071 -39.207,-64.352 -39.207,-64.352 v -67.183 h -36.007 v 67.665 l 37.422,69.825 c -6.611,12.392 -13.258,29.442 -13.258,44.47 0,15.028 3.746,29.178 10.359,41.571 l -34.523,66.926 v 69.108 h 36.007 v -68.627 c 0,0 36.389,-61.381 36.305,-61.453 C 8.77,36.094 0,18.894 0,0"
           style="fill:#231f20;fill-opacity:1;fill-rule:nonzero;stroke:none"
           id="path961"
           inkscape:connector-curvature="0" />
      </g>
      <g
         id="g963"
         transform="matrix(0.45595642,0,0,0.45595642,902.60222,252.73479)">
        <path
           d="m 0,0 c 0,-18.893 -11.668,-38.993 -24.947,-50.425 -0.084,-0.071 39.205,-64.352 39.205,-64.352 v -67.183 h 36.004 v 67.665 L 12.842,-44.47 C 19.454,-32.078 26.1,-15.028 26.1,0 c 0,15.028 -3.747,29.178 -10.36,41.571 l 34.522,66.926 v 69.108 H 14.258 v -68.627 c 0,0 -36.388,-61.381 -36.307,-61.453 C -8.768,36.094 0,18.894 0,0"
           style="fill:#231f20;fill-opacity:1;fill-rule:nonzero;stroke:none"
           id="path965"
           inkscape:connector-curvature="0" />
      </g>
      <g
         id="g967"
         transform="matrix(0.45595642,0,0,0.45595642,899.82107,169.76883)">
        <path
           d="M 0,0 H -35.522"
           style="fill:none;stroke:#ed1c24;stroke-width:0.25;stroke-linecap:butt;stroke-linejoin:miter;stroke-miterlimit:10;stroke-dasharray:none;stroke-opacity:1"
           id="path969"
           inkscape:connector-curvature="0" />
      </g>
      <g
         id="g971"
         transform="matrix(0.45595642,0,0,0.45595642,873.3756,212.35001)">
        <path
           d="m 0,0 c 2.305,0 5.956,0.26 8.44,0.465 l 14.035,-26.438 v -67.416 h 35.522 v 61.376 L 21.302,29.83 C 14.657,27.414 7.48,26.097 0,26.097 h 0.002 c -7.481,0 -14.657,1.317 -21.304,3.733 l -36.695,-61.843 v -61.376 h 35.523 v 67.416 L -8.44,0.465 C -5.956,0.26 -2.303,0 0.002,0 Z"
           style="fill:#231f20;fill-opacity:1;fill-rule:nonzero;stroke:none"
           id="path973"
           inkscape:connector-curvature="0" />
      </g>
      <g
         id="g975"
         transform="matrix(0.45595642,0,0,0.45595642,486.28698,124.40485)">
        <path
           d="m 0,0 c -3.441,-4.187 -7.614,-7.514 -12.517,-9.979 -4.904,-2.466 -10.311,-3.7 -16.217,-3.7 -5.106,0 -9.894,0.933 -14.367,2.796 -4.474,1.863 -8.367,4.401 -11.676,7.614 -3.31,3.211 -5.921,6.982 -7.829,11.313 -1.909,4.33 -2.863,8.99 -2.863,13.98 0,4.99 0.954,9.649 2.863,13.98 1.908,4.33 4.519,8.115 7.829,11.356 3.309,3.24 7.202,5.777 11.676,7.614 4.473,1.835 9.261,2.753 14.367,2.753 5.906,0 11.313,-1.234 16.217,-3.7 4.903,-2.466 8.99,-5.678 12.259,-9.635 l -9.205,-9.464 c -2.123,3.04 -4.861,5.492 -8.216,7.356 -3.355,1.863 -7.041,2.796 -11.055,2.796 -3.213,0 -6.237,-0.617 -9.077,-1.85 -2.839,-1.233 -5.32,-2.896 -7.441,-4.989 -2.123,-2.095 -3.8,-4.532 -5.033,-7.313 -1.234,-2.782 -1.85,-5.751 -1.85,-8.904 0,-3.097 0.616,-6.037 1.85,-8.818 1.233,-2.783 2.91,-5.22 5.033,-7.313 2.121,-2.094 4.602,-3.757 7.441,-4.99 2.84,-1.234 5.864,-1.849 9.077,-1.849 4.244,0 8.001,0.959 11.27,2.882 3.269,1.921 5.992,4.459 8.173,7.614 z"
           style="fill:#231f20;fill-opacity:1;fill-rule:nonzero;stroke:none"
           id="path977"
           inkscape:connector-curvature="0" />
      </g>
      <g
         id="g979"
         transform="matrix(0.45595642,0,0,0.45595642,514.17709,134.4468)">
        <path
           d="m 0,0 c 0,3.154 -0.604,6.122 -1.811,8.904 -1.207,2.781 -2.859,5.219 -4.956,7.313 -2.097,2.093 -4.554,3.756 -7.369,4.99 -2.814,1.232 -5.803,1.849 -8.963,1.849 -3.218,0 -6.236,-0.617 -9.051,-1.849 -2.815,-1.234 -5.272,-2.897 -7.369,-4.99 -2.097,-2.094 -3.749,-4.532 -4.956,-7.313 -1.207,-2.782 -1.81,-5.75 -1.81,-8.904 0,-3.097 0.603,-6.052 1.81,-8.861 1.207,-2.811 2.859,-5.263 4.956,-7.356 2.097,-2.094 4.554,-3.757 7.369,-4.99 2.815,-1.234 5.833,-1.849 9.051,-1.849 3.16,0 6.149,0.615 8.963,1.849 2.815,1.233 5.272,2.896 7.369,4.99 2.097,2.093 3.749,4.545 4.956,7.356 C -0.604,-6.052 0,-3.097 0,0 m 13.335,0 c 0,-4.933 -0.96,-9.579 -2.879,-13.937 -1.92,-4.359 -4.54,-8.145 -7.863,-11.356 -3.323,-3.213 -7.189,-5.751 -11.601,-7.614 -4.411,-1.863 -9.108,-2.796 -14.091,-2.796 -4.985,0 -9.696,0.933 -14.136,2.796 -4.44,1.863 -8.321,4.401 -11.644,7.614 -3.323,3.211 -5.943,6.982 -7.862,11.313 -1.92,4.33 -2.878,8.99 -2.878,13.98 0,4.99 0.958,9.664 2.878,14.023 1.919,4.358 4.539,8.143 7.862,11.356 3.323,3.212 7.204,5.735 11.644,7.571 4.44,1.835 9.151,2.753 14.136,2.753 4.983,0 9.68,-0.918 14.091,-2.753 C -4.596,31.114 -0.73,28.576 2.593,25.336 5.916,22.095 8.536,18.31 10.456,13.98 12.375,9.649 13.335,4.99 13.335,0"
           style="fill:#231f20;fill-opacity:1;fill-rule:nonzero;stroke:none"
           id="path981"
           inkscape:connector-curvature="0" />
      </g>
      <g
         id="g983"
         transform="matrix(0.45595642,0,0,0.45595642,551.08902,118.7563)">
        <path
           d="M 0,0 H -13.077 L -44.134,48.263 V 0 H -57.21 v 68.825 h 14.969 L -13.077,23.917 V 68.825 H 0 Z"
           style="fill:#231f20;fill-opacity:1;fill-rule:nonzero;stroke:none"
           id="path985"
           inkscape:connector-curvature="0" />
      </g>
      <g
         id="g987"
         transform="matrix(0.45595642,0,0,0.45595642,578.5078,144.68489)">
        <path
           d="M 0,0 H -19.013 V -56.866 H -32.52 V 0 H -51.533 V 11.872 H 0 Z"
           style="fill:#231f20;fill-opacity:1;fill-rule:nonzero;stroke:none"
           id="path989"
           inkscape:connector-curvature="0" />
      </g>
      <g
         id="g991"
         transform="matrix(0.45595642,0,0,0.45595642,598.08102,140.68383)">
        <path
           d="m 0,0 c 0,1.605 -0.301,3.067 -0.903,4.387 -0.603,1.319 -1.42,2.466 -2.452,3.442 -1.032,0.974 -2.252,1.734 -3.656,2.28 -1.406,0.544 -2.912,0.817 -4.517,0.817 h -9.636 v -21.422 h 9.636 c 1.605,0 3.111,0.244 4.517,0.731 1.404,0.487 2.624,1.19 3.656,2.108 1.032,0.917 1.849,2.022 2.452,3.312 C -0.301,-3.054 0,-1.606 0,0 M 17.378,-48.091 H 2.694 l -4.892,15.657 c -0.515,1.721 -1.158,3.298 -1.93,4.732 -0.773,1.433 -1.703,2.667 -2.789,3.699 -1.088,1.033 -2.389,1.835 -3.906,2.409 -1.516,0.573 -3.304,0.861 -5.363,0.861 h -4.978 v -27.358 h -13.162 v 68.738 l 27.137,0.086 c 2.92,0 5.639,-0.502 8.158,-1.505 2.519,-1.004 4.694,-2.395 6.527,-4.173 1.83,-1.778 3.262,-3.871 4.293,-6.28 1.03,-2.409 1.546,-5.019 1.546,-7.829 0,-2.008 -0.315,-3.957 -0.941,-5.85 -0.627,-1.892 -1.51,-3.643 -2.65,-5.248 -1.14,-1.606 -2.492,-3.025 -4.058,-4.258 -1.567,-1.234 -3.29,-2.166 -5.17,-2.796 2.164,-0.804 3.931,-1.965 5.299,-3.484 1.369,-1.521 2.451,-3.342 3.249,-5.463 0.398,-0.976 0.769,-1.951 1.111,-2.925 0.341,-0.976 0.697,-1.994 1.068,-3.055 0.371,-1.062 0.77,-2.208 1.198,-3.441 0.427,-1.234 0.896,-2.595 1.41,-4.086 0.63,-1.893 1.218,-3.514 1.764,-4.861 0.544,-1.348 1.132,-2.538 1.763,-3.57"
           style="fill:#231f20;fill-opacity:1;fill-rule:nonzero;stroke:none"
           id="path993"
           inkscape:connector-curvature="0" />
      </g>
      <g
         id="g995"
         transform="matrix(0.45595642,0,0,0.45595642,635.77721,134.4468)">
        <path
           d="m 0,0 c 0,3.154 -0.604,6.122 -1.811,8.904 -1.207,2.781 -2.859,5.219 -4.956,7.313 -2.097,2.093 -4.554,3.756 -7.369,4.99 -2.815,1.232 -5.803,1.849 -8.963,1.849 -3.218,0 -6.236,-0.617 -9.051,-1.849 -2.815,-1.234 -5.272,-2.897 -7.369,-4.99 -2.097,-2.094 -3.749,-4.532 -4.956,-7.313 -1.207,-2.782 -1.81,-5.75 -1.81,-8.904 0,-3.097 0.603,-6.052 1.81,-8.861 1.207,-2.811 2.859,-5.263 4.956,-7.356 2.097,-2.094 4.554,-3.757 7.369,-4.99 2.815,-1.234 5.833,-1.849 9.051,-1.849 3.16,0 6.148,0.615 8.963,1.849 2.815,1.233 5.272,2.896 7.369,4.99 2.097,2.093 3.749,4.545 4.956,7.356 C -0.604,-6.052 0,-3.097 0,0 m 13.335,0 c 0,-4.933 -0.96,-9.579 -2.879,-13.937 -1.92,-4.359 -4.54,-8.145 -7.863,-11.356 -3.323,-3.213 -7.189,-5.751 -11.601,-7.614 -4.411,-1.863 -9.108,-2.796 -14.091,-2.796 -4.985,0 -9.696,0.933 -14.136,2.796 -4.44,1.863 -8.321,4.401 -11.644,7.614 -3.323,3.211 -5.943,6.982 -7.862,11.313 -1.92,4.33 -2.878,8.99 -2.878,13.98 0,4.99 0.958,9.664 2.878,14.023 1.919,4.358 4.539,8.143 7.862,11.356 3.323,3.212 7.204,5.735 11.644,7.571 4.44,1.835 9.151,2.753 14.136,2.753 4.983,0 9.68,-0.918 14.091,-2.753 C -4.596,31.114 -0.73,28.576 2.593,25.336 5.916,22.095 8.536,18.31 10.456,13.98 12.375,9.649 13.335,4.99 13.335,0"
           style="fill:#231f20;fill-opacity:1;fill-rule:nonzero;stroke:none"
           id="path997"
           inkscape:connector-curvature="0" />
      </g>
      <g
         id="g999"
         transform="matrix(0.45595642,0,0,0.45595642,667.82483,118.7563)">
        <path
           d="m 0,0 h -46.542 v 68.739 h 13.593 V 12.905 H 0 Z"
           style="fill:#231f20;fill-opacity:1;fill-rule:nonzero;stroke:none"
           id="path1001"
           inkscape:connector-curvature="0" />
      </g>
      <g
         id="g1003"
         transform="matrix(0.45595642,0,0,0.45595642,705.44224,134.60364)">
        <path
           d="m 0,0 c 0.057,3.211 -0.43,6.251 -1.462,9.119 -1.033,2.868 -2.525,5.377 -4.474,7.528 -1.95,2.151 -4.345,3.842 -7.184,5.076 -2.838,1.233 -6.036,1.85 -9.592,1.85 H -34.326 V -23.4 h 11.614 c 3.498,0 6.638,0.587 9.42,1.763 2.782,1.175 5.147,2.81 7.098,4.904 1.949,2.093 3.454,4.56 4.517,7.399 C -0.617,-6.495 -0.058,-3.385 0,0 m 13.507,-0.344 c 0,-4.761 -0.804,-9.22 -2.409,-13.378 -1.606,-4.159 -3.843,-7.8 -6.71,-10.926 -2.869,-3.126 -6.295,-5.592 -10.281,-7.398 -3.987,-1.807 -8.332,-2.71 -13.034,-2.71 h -28.734 v 68.824 h 28.734 c 4.702,0 9.047,-0.918 13.034,-2.753 3.986,-1.836 7.412,-4.301 10.281,-7.398 2.867,-3.097 5.104,-6.74 6.71,-10.926 1.605,-4.188 2.409,-8.633 2.409,-13.335"
           style="fill:#231f20;fill-opacity:1;fill-rule:nonzero;stroke:none"
           id="path1005"
           inkscape:connector-curvature="0" />
      </g>
      <g
         id="g1007"
         transform="matrix(0.45595642,0,0,0.45595642,737.01923,118.7563)">
        <path
           d="M 0,0 H -45.424 V 68.739 H 0 V 57.727 H -32.347 V 41.295 H -0.43 V 30.541 H -32.347 V 11.614 H 0 Z"
           style="fill:#231f20;fill-opacity:1;fill-rule:nonzero;stroke:none"
           id="path1009"
           inkscape:connector-curvature="0" />
      </g>
      <g
         id="g1011"
         transform="matrix(0.45595642,0,0,0.45595642,770.00795,139.66395)">
        <path
           d="m 0,0 c 0,1.777 -0.331,3.441 -0.989,4.99 -0.66,1.548 -1.564,2.895 -2.71,4.043 -1.148,1.147 -2.495,2.065 -4.044,2.753 -1.549,0.688 -3.213,1.033 -4.989,1.033 h -8.862 v -25.982 h 8.862 c 1.776,0 3.44,0.358 4.989,1.076 1.549,0.716 2.896,1.677 4.044,2.882 1.146,1.204 2.05,2.594 2.71,4.172 C -0.331,-3.456 0,-1.779 0,0 m 13.335,-0.172 c 0,-3.269 -0.619,-6.323 -1.856,-9.162 -1.236,-2.839 -2.917,-5.306 -5.044,-7.399 -2.126,-2.094 -4.628,-3.729 -7.502,-4.904 -2.876,-1.176 -5.923,-1.763 -9.142,-1.763 h -11.385 v -22.454 h -13.335 v 68.738 h 24.736 c 3.216,0 6.261,-0.589 9.134,-1.763 2.873,-1.177 5.372,-2.797 7.499,-4.861 2.125,-2.065 3.806,-4.503 5.041,-7.313 1.235,-2.811 1.854,-5.85 1.854,-9.119"
           style="fill:#231f20;fill-opacity:1;fill-rule:nonzero;stroke:none"
           id="path1013"
           inkscape:connector-curvature="0" />
      </g>
      <g
         id="g1015"
         transform="matrix(0.45595642,0,0,0.45595642,801.19245,118.7563)">
        <path
           d="M 0,0 H -46.543 V 68.739 H -32.95 V 12.905 H 0 Z"
           style="fill:#231f20;fill-opacity:1;fill-rule:nonzero;stroke:none"
           id="path1017"
           inkscape:connector-curvature="0" />
      </g>
      <g
         id="g1019"
         transform="matrix(0.45595642,0,0,0.45595642,824.41417,130.09274)">
        <path
           d="M 0,0 -11.442,24.777 -23.057,0 Z M 26.239,-24.863 H 11.614 l -6.366,13.765 h -33.38 l -6.452,-13.765 h -14.625 l 32.519,68.825 h 10.41 z"
           style="fill:#231f20;fill-opacity:1;fill-rule:nonzero;stroke:none"
           id="path1021"
           inkscape:connector-curvature="0" />
      </g>
      <g
         id="g1023"
         transform="matrix(0.45595642,0,0,0.45595642,865.83741,124.52254)">
        <path
           d="m 0,0 c -1.951,-2.409 -4.073,-4.488 -6.366,-6.237 -2.295,-1.75 -4.689,-3.198 -7.184,-4.345 -2.495,-1.148 -5.048,-1.993 -7.657,-2.538 -2.61,-0.544 -5.205,-0.817 -7.785,-0.817 -5.106,0 -9.894,0.918 -14.368,2.753 -4.473,1.835 -8.374,4.358 -11.7,7.571 -3.327,3.211 -5.966,6.997 -7.915,11.356 -1.95,4.358 -2.924,9.061 -2.924,14.109 0,4.932 0.959,9.563 2.881,13.894 1.921,4.33 4.56,8.1 7.915,11.313 3.355,3.211 7.27,5.749 11.743,7.614 4.474,1.863 9.262,2.796 14.368,2.796 5.906,0 11.283,-1.205 16.13,-3.614 4.846,-2.408 8.961,-5.621 12.346,-9.635 l -9.019,-9.205 c -2.576,3.497 -5.468,6.007 -8.674,7.527 -3.208,1.519 -6.786,2.28 -10.736,2.28 -3.264,0 -6.327,-0.602 -9.191,-1.807 -2.863,-1.204 -5.367,-2.853 -7.516,-4.946 -2.147,-2.095 -3.836,-4.532 -5.067,-7.313 -1.232,-2.782 -1.846,-5.751 -1.846,-8.904 0,-3.213 0.614,-6.209 1.846,-8.99 1.23,-2.783 2.918,-5.235 5.065,-7.356 2.145,-2.122 4.65,-3.785 7.511,-4.99 2.861,-1.204 5.923,-1.807 9.185,-1.807 3.091,0 6.009,0.573 8.757,1.721 2.745,1.147 5.207,2.667 7.383,4.56 v 6.624 h -14.11 V 22.97 H 0 Z"
           style="fill:#231f20;fill-opacity:1;fill-rule:nonzero;stroke:none"
           id="path1025"
           inkscape:connector-curvature="0" />
      </g>
      <g
         id="g1027"
         transform="matrix(0.45595642,0,0,0.45595642,889.64709,130.09274)">
        <path
           d="M 0,0 -11.441,24.777 -23.056,0 Z M 26.24,-24.863 H 11.615 l -6.366,13.765 h -33.38 l -6.453,-13.765 h -14.625 l 32.52,68.825 H -6.28 Z"
           style="fill:#231f20;fill-opacity:1;fill-rule:nonzero;stroke:none"
           id="path1029"
           inkscape:connector-curvature="0" />
      </g>
      <g
         id="g1031"
         transform="matrix(0.45595642,0,0,0.45595642,925.69587,126.99378)">
        <path
           d="m 0,0 c 0,-2.581 -0.559,-5.033 -1.677,-7.355 -1.119,-2.323 -2.682,-4.375 -4.689,-6.152 -2.009,-1.778 -4.387,-3.198 -7.141,-4.258 -2.753,-1.061 -5.793,-1.592 -9.119,-1.592 -2.983,0 -5.665,0.172 -8.044,0.516 -2.38,0.344 -4.617,0.889 -6.71,1.635 -2.095,0.745 -4.101,1.706 -6.023,2.882 -1.922,1.175 -3.914,2.594 -5.978,4.259 l 9.463,9.549 c 2.752,-2.295 5.448,-3.914 8.087,-4.861 2.637,-0.946 5.506,-1.419 8.603,-1.419 1.261,0 2.452,0.185 3.57,0.559 1.118,0.372 2.093,0.873 2.925,1.505 0.831,0.631 1.491,1.377 1.979,2.237 0.486,0.86 0.731,1.807 0.731,2.839 0,1.089 -0.202,2.065 -0.602,2.925 -0.402,0.861 -1.119,1.691 -2.151,2.495 -1.032,0.803 -2.467,1.62 -4.301,2.452 -1.837,0.831 -4.188,1.764 -7.055,2.796 -2.524,0.917 -4.947,1.964 -7.269,3.14 -2.323,1.175 -4.36,2.595 -6.109,4.259 -1.75,1.662 -3.155,3.613 -4.215,5.85 -1.062,2.237 -1.592,4.874 -1.592,7.915 0,2.925 0.588,5.62 1.764,8.086 1.175,2.466 2.781,4.574 4.818,6.324 2.035,1.749 4.415,3.11 7.14,4.086 2.723,0.975 5.663,1.463 8.818,1.463 5.277,0 9.722,-0.688 13.335,-2.065 3.613,-1.376 6.825,-3.385 9.635,-6.022 l -9.291,-9.378 c -1.72,1.663 -3.643,2.939 -5.764,3.829 -2.122,0.888 -4.617,1.333 -7.485,1.333 -1.32,0 -2.537,-0.201 -3.656,-0.602 -1.118,-0.402 -2.08,-0.933 -2.882,-1.591 -0.804,-0.66 -1.449,-1.435 -1.936,-2.323 -0.488,-0.89 -0.731,-1.822 -0.731,-2.796 0,-1.09 0.228,-2.08 0.688,-2.968 0.459,-0.89 1.233,-1.75 2.323,-2.581 1.089,-0.832 2.538,-1.664 4.345,-2.495 1.806,-0.832 4.057,-1.736 6.753,-2.71 3.442,-1.204 6.395,-2.525 8.861,-3.958 2.466,-1.434 4.474,-3.011 6.022,-4.731 C -3.011,11.356 -1.864,9.42 -1.118,7.27 -0.374,5.119 0,2.695 0,0"
           style="fill:#231f20;fill-opacity:1;fill-rule:nonzero;stroke:none"
           id="path1033"
           inkscape:connector-curvature="0" />
      </g>
    </g>
  </g>
</svg>
