<?xml version="1.0" encoding="UTF-8" standalone="no"?>
<svg
   xmlns:dc="http://purl.org/dc/elements/1.1/"
   xmlns:cc="http://creativecommons.org/ns#"
   xmlns:rdf="http://www.w3.org/1999/02/22-rdf-syntax-ns#"
   xmlns:svg="http://www.w3.org/2000/svg"
   xmlns="http://www.w3.org/2000/svg"
   xmlns:sodipodi="http://sodipodi.sourceforge.net/DTD/sodipodi-0.dtd"
   xmlns:inkscape="http://www.inkscape.org/namespaces/inkscape"
   width="342pt"
   height="480pt"
   viewBox="0 0 342 480"
   version="1.1"
   id="svg25"
   sodipodi:docname="icon-css3.svg"
   inkscape:version="0.92.5 (2060ec1f9f, 2020-04-08)">
  <metadata
     id="metadata31">
    <rdf:RDF>
      <cc:Work
         rdf:about="">
        <dc:format>image/svg+xml</dc:format>
        <dc:type
           rdf:resource="http://purl.org/dc/dcmitype/StillImage" />
      </cc:Work>
    </rdf:RDF>
  </metadata>
  <defs
     id="defs29" />
  <sodipodi:namedview
     pagecolor="#ffffff"
     bordercolor="#666666"
     borderopacity="1"
     objecttolerance="10"
     gridtolerance="10"
     guidetolerance="10"
     inkscape:pageopacity="0"
     inkscape:pageshadow="2"
     inkscape:window-width="1288"
     inkscape:window-height="704"
     id="namedview27"
     showgrid="false"
     inkscape:zoom="0.52149125"
     inkscape:cx="193.98886"
     inkscape:cy="256.98398"
     inkscape:window-x="72"
     inkscape:window-y="27"
     inkscape:window-maximized="1"
     inkscape:current-layer="svg25" />
  <g
     id="#000000ff"
     style="fill:#fefefe;fill-opacity:1">
    <path
       fill="#000000"
       opacity="1.00"
       d=" M 68.37 0.96 C 89.37 0.70 110.37 0.88 131.37 0.87 C 131.42 7.44 131.52 14.01 131.28 20.58 C 116.73 20.48 102.19 20.58 87.65 20.67 C 87.55 30.21 87.36 39.75 87.45 49.29 C 102.05 49.38 116.66 49.52 131.26 49.46 C 131.43 54.86 131.37 60.28 131.21 65.69 C 110.27 65.55 89.33 65.61 68.39 65.63 C 68.44 44.07 68.48 22.52 68.37 0.96 Z"
       id="path2"
       style="fill:#fefefe;fill-opacity:1" />
    <path
       fill="#000000"
       opacity="1.00"
       d=" M 138.86 0.89 C 160.12 0.85 181.38 0.72 202.65 0.96 C 202.57 7.17 202.63 13.37 202.63 19.58 C 187.16 19.53 171.68 19.60 156.21 19.78 C 156.23 22.22 156.23 24.66 156.21 27.10 C 171.66 27.35 187.10 27.38 202.54 27.47 C 202.60 40.20 202.57 52.92 202.65 65.64 C 181.38 65.60 160.11 65.62 138.84 65.72 C 138.73 60.58 138.72 55.45 138.87 50.31 C 153.61 50.35 168.36 50.37 183.10 50.25 C 183.19 46.94 183.23 43.62 183.22 40.31 C 168.41 40.31 153.59 40.36 138.78 40.26 C 138.78 27.14 138.78 14.01 138.86 0.89 Z"
       id="path4"
       style="fill:#fefefe;fill-opacity:1" />
    <path
       fill="#000000"
       opacity="1.00"
       d=" M 209.77 1.00 C 230.99 1.00 252.22 1.00 273.44 1.00 C 273.53 7.24 273.62 13.48 273.42 19.71 C 257.88 19.70 242.34 19.79 226.80 19.82 C 226.84 22.37 226.90 24.92 227.03 27.47 C 242.48 27.40 257.93 27.59 273.37 27.75 C 273.51 40.42 273.61 53.09 273.43 65.76 C 252.16 65.70 230.89 65.70 209.62 65.80 C 209.49 60.68 209.45 55.54 209.67 50.42 C 224.38 50.53 239.10 50.51 253.82 50.37 C 253.86 47.05 253.93 43.73 253.90 40.42 C 239.13 40.56 224.35 40.48 209.57 40.43 C 209.57 27.29 209.67 14.14 209.77 1.00 Z"
       id="path6"
       style="fill:#fefefe;fill-opacity:1" />
  </g>
  <g
     id="#0170baff"
     style="fill:#fefefe;fill-opacity:1">
    <path
       d="m 0,92.46 c 113.92,-0.01 227.83,-0.02 341.75,0 -6.27,70.85 -12.44,141.7 -18.97,212.53 -3.88,45.27 -7.88,90.54 -12.1,135.78 -24.31,6.44 -48.38,13.78 -72.68,20.25 -22.32,6.55 -44.82,12.48 -67.15,18.98 h -0.66 C 148.94,473.68 127.48,468.12 106.23,461.8 81.15,455.04 56.29,447.5 31.2,440.77 27.93,406.86 24.98,372.93 22.07,339 16.58,276.31 10.61,213.66 5.33,150.96 3.5,132.09 2.19,113.16 0,94.33 v -1.87"
       id="path9"
       style="opacity:1;fill:#fefefe;fill-opacity:1"
       inkscape:connector-curvature="0"
       sodipodi:nodetypes="ccccccccccccc" />
  </g>
  <g
     id="#cfcfcfff"
     style="fill:#111111;fill-opacity:1">
    <path
       fill="#cfcfcf"
       opacity="1.00"
       d=" M 53.92 161.25 C 93.00 161.21 132.09 161.10 171.17 161.24 C 171.68 204.24 171.04 247.24 171.60 290.22 C 156.07 290.56 140.53 290.25 125.00 290.33 C 105.62 290.36 86.25 290.67 66.87 290.74 C 65.84 276.26 63.50 261.83 63.23 247.32 C 65.68 245.54 68.61 244.62 71.35 243.40 C 103.30 229.43 135.50 215.99 167.31 201.72 C 130.95 200.63 94.54 202.03 58.18 200.68 C 56.36 187.58 54.59 174.46 53.92 161.25 Z"
       id="path17"
       style="fill:#111111;fill-opacity:1" />
    <path
       fill="#cfcfcf"
       opacity="1.00"
       d=" M 69.76 316.08 C 81.51 315.90 93.26 316.01 105.00 315.94 C 107.42 315.98 109.90 315.91 112.24 316.63 C 113.26 328.09 114.06 339.58 115.21 351.03 C 123.30 353.38 131.71 354.31 139.92 356.10 C 150.33 357.95 160.65 360.28 171.10 361.83 C 172.10 376.35 170.35 390.97 172.02 405.44 C 171.72 405.50 171.11 405.62 170.81 405.68 C 168.62 405.86 166.49 405.08 164.38 404.63 C 146.64 399.89 128.71 395.88 111.00 391.06 C 99.44 387.91 87.84 384.95 76.26 381.93 C 72.89 360.11 70.91 338.11 69.76 316.08 Z"
       id="path19"
       style="fill:#111111;fill-opacity:1" />
  </g>
  <g
     id="#ffffffff"
     style="fill:#111111;fill-opacity:1"
     transform="translate(-1.4381833)">
    <path
       d="m 171.17,161.24 c 37.54,0.2 75.07,-0.06 112.6,0.24 -0.54,11.21 -1.98,22.35 -2.79,33.55 -0.37,3.53 -0.32,7.14 -1.26,10.59 -2.39,1.86 -5.29,2.9 -8.01,4.15 -14.1,6.25 -28.32,12.22 -42.37,18.59 -14.64,6.55 -29.64,12.37 -43.9,19.71 3.84,0.28 7.7,0.3 11.56,0.28 26.5,-0.11 53.01,-0.03 79.51,-0.17 -2.77,44.29 -7.14,88.47 -11.08,132.67 -31.16,8.12 -62.18,16.75 -93.41,24.59 -1.67,-14.47 0.08,-29.09 -0.92,-43.61 5.68,-2.67 11.81,-4.11 17.78,-5.93 11.2,-3.36 22.48,-6.43 33.59,-10.06 0.96,-18.53 2.5,-37.03 3.51,-55.56 -18.13,0.12 -36.26,-0.37 -54.38,-0.06 -0.56,-42.98 0.08,-85.98 -0.43,-128.98 z"
       id="path22"
       style="opacity:1;fill:#111111;fill-opacity:1"
       inkscape:connector-curvature="0" />
  </g>
</svg>
